# xmcd
#
# Track frame offsets:
#	150
#	11526
#	22686
#	34174
#	47602
#	79109
#	91229
#	106157
#	117812
#	128714
#	141738
#	158957
#	172523
#	182112
#	196907
#
# Disc length: 2772
#
# Revision: 1
# Processed by: cddbd v1.5.1PL0 Copyright (c) Steve Scherf et al.
# Submitted via: dBpowerAMP V4.0
# Normalized: r0:TSWAP
#
DISCID=b10ad20f
DTITLE=Various Artist - A Cowboy Christmas
DYEAR=1997
DGENRE=Holiday
TTITLE0=Gene Autry - Here Comes Santa Claus
TTITLE1=Rose Maddox - Footprints In The Snow
TTITLE2=Tex Ritter - Christmas Carols By The Old Corral
TTITLE3=Rex Allen - The Last Roundup
TTITLE4=Rocky Mountain Boys - Who Spiked The Egg Nog
TTITLE5=Merle Haggard - If We Make It Through December
TTITLE6=Roy Rogers - There'll Be Peace In The Valley
TTITLE7=Johnny Horton - When It's Springtime In Alaska
TTITLE8=Walter Brennan - A Good Year For Christmas
TTITLE9=Rose Maddox - Each Season Changes You
TTITLE10=Ed McCurdy - The Red River Valley
TTITLE11=Jimmie Wakely - Blue Shadows On The Trail
TTITLE12=Marty Robbins - Santa Claus Is Coming To Town
TTITLE13=Rock Hudson - Gone With The Cowboys
TTITLE14=The Sons Of The Pioneers - The Lord's Prayer
EXTD=
EXTT0=
EXTT1=
EXTT2=
EXTT3=
EXTT4=
EXTT5=
EXTT6=
EXTT7=
EXTT8=
EXTT9=
EXTT10=
EXTT11=
EXTT12=
EXTT13=
EXTT14=
PLAYORDER=
